<svg aria-hidden="true" style="position:absolute;width:0;height:0;overflow:hidden" xmlns="http://www.w3.org/2000/svg">
  <defs>
    <symbol id="icon-search" viewBox="0 0 32 32">
      <path fill="none" stroke="#fff" style="stroke:var(--color1, #fff)" stroke-linejoin="round" stroke-linecap="round" stroke-width="2.667" d="M14.667 25.333c5.891 0 10.667-4.776 10.667-10.667S20.558 3.999 14.667 3.999 4 8.775 4 14.666s4.776 10.667 10.667 10.667zM28 28.001l-5.8-5.8"/>
    </symbol>
    <symbol id="icon-close-icon" viewBox="0 0 32 32">
      <path stroke-width="2.133" d="m8.533 8.533 14.933 14.933M8.533 23.467 23.466 8.534"/>
    </symbol>
    <symbol id="icon-heart" viewBox="0 0 32 32">
      <path fill="#ff6b08" style="fill:var(--color2, #ff6b08)" d="m16 30.583-2.24-2.24C5.44 20.983 0 16.023 0 9.943c0-4.96 3.84-8.8 8.8-8.8 2.72 0 5.44 1.28 7.2 3.36 1.76-2.08 4.48-3.36 7.2-3.36 4.96 0 8.8 3.84 8.8 8.8 0 6.08-5.44 11.04-13.76 18.4L16 30.583z"/>
    </symbol>
    <symbol id="icon-arrow-right" viewBox="0 0 32 32">
      <path stroke-linejoin="round" stroke-linecap="round" stroke-width="2.667" d="M6.667 16h18.667M16 25.334l9.333-9.333L16 6.668"/>
    </symbol>
    <symbol id="icon-arrow-left" viewBox="0 0 32 32">
      <path stroke-linejoin="round" stroke-linecap="round" stroke-width="2.667" d="M25.333 16H6.666M16 25.334l-9.333-9.333L16 6.668"/>
    </symbol>
    <symbol id="icon-film" viewBox="0 0 32 32">
      <path fill="none" stroke="#fff" style="stroke:var(--color1, #fff)" stroke-linejoin="round" stroke-linecap="round" stroke-width="2.667" d="M26.427 2.667H5.574a2.907 2.907 0 0 0-2.907 2.907v20.853a2.907 2.907 0 0 0 2.907 2.907h20.853a2.907 2.907 0 0 0 2.907-2.907V5.574a2.907 2.907 0 0 0-2.907-2.907zM9.333 2.667v26.667M22.667 2.667v26.667M2.667 16h26.667M2.667 9.333h6.667M2.667 22.667h6.667M22.667 22.667h6.667M22.667 9.333h6.667"/>
    </symbol>
    <symbol id="icon-github" viewBox="0 0 20 20">
      <path d="M10 .6A9.4 9.4 0 0 0 .6 10c0 4.4 3 8.4 7.2 9.4v-3.1H6.6c-.6-.2-1-.6-1.3-1.1-.3-.4-.6-.8-1-.8l-.1-1c.8-.1 1.6.5 2 1.2.2.3.4.5.7.6h1c0-.8.3-1 .6-1.4-2.5-.4-3.4-1.7-3.8-2.7-.5-1.4-.3-3 .6-4.1v-.1c-.3-1.3.2-2.3.2-2.5.5.2.5-.1 2 .8l.3.2H8a8 8 0 0 1 2-.3 8 8 0 0 1 2 .3h.2c1.9-1.2 1.8-.8 2.3-1 0 .2.5 1.2.1 2.5 0 .1 1.7 1.7.7 4.2-.4 1-1.3 2.3-3.8 2.7.3.5.7.7.7 1.7v4c4.1-1 7.2-5 7.2-9.5 0-5.2-4.2-9.4-9.4-9.4Z"/>
    </symbol>
    <symbol id="icon-telegram" viewBox="0 0 20 16">
      <path d="m8.1 10.4-.3 4.1c.4 0 .6-.1.9-.4l2.1-1.9 4.4 3c.8.5 1.4.3 1.6-.6l3-12.7C20 .8 19.2.3 18.4.6l-17 6.1C.3 7.1.3 7.7 1.3 8l4.3 1.3 10.1-6c.5-.2 1 0 .6.2L8 10.4Z"/>
    </symbol>
    <symbol id="icon-facebook" viewBox="0 0 10 20">
      <path d="M9 10H6.2v9.6h-4V10H.6V6.6h1.9V4.4c0-1.6.7-4 4-4h2.9v3.3H7c-.3 0-.8.2-.8 1v1.9h3L8.9 10Z"/>
    </symbol>
  </defs>
</svg>
